<?xml version="1.0" standalone="no"?>
<svg xmlns="http://www.w3.org/2000/svg" viewBox="0 0 1440 320">
  <path fill="#606c38" fill-opacity="1" d="M0,320L30,293.3C60,267,120,213,180,186.7C240,160,300,160,360,176C420,192,480,224,540,197.3C600,171,660,85,720,58.7C780,32,840,64,900,64C960,64,1020,32,1080,21.3C1140,11,1200,21,1260,21.3C1320,21,1380,11,1410,5.3L1440,0L1440,320L1410,320C1380,320,1320,320,1260,320C1200,320,1140,320,1080,320C1020,320,960,320,900,320C840,320,780,320,720,320C660,320,600,320,540,320C480,320,420,320,360,320C300,320,240,320,180,320C120,320,60,320,30,320L0,320Z"></path>
</svg>